# xmcd CD database file
#
# Track frame offsets:
#	150
#	30345
#	49032
#	79937
#	101375
#	116395
#	130700
#	156077
#	176850
#	195695
#	216135
#	236397
#
# Disc length: 3191 seconds
#
# Revision: 4
# Processed by: cddbd v1.5.2PL0 Copyright (c) Steve Scherf et al.
# Submitted via: CDex 1.70beta2
#
DISCID=930c750c
DTITLE=Jane Monheit - Come Dream With Me
DYEAR=2001
DGENRE=Jazz
TTITLE0=Over The Rainbow
TTITLE1=Hit The Road To Dreamland
TTITLE2=Spring Can Really Hang You Up The Most
TTITLE3=Waters Of March
TTITLE4=I'm Through With Love
TTITLE5=I'll Be Seeing You
TTITLE6=Something To Live For
TTITLE7=So Many Stars
TTITLE8=If
TTITLE9=Blame It On My Youth
TTITLE10=A Case Of You
TTITLE11=Over The Rainbow (Reprise)
EXTD=N-Coded Music, NC-4219-2 YEAR: 2001
EXTT0=
EXTT1=
EXTT2=
EXTT3=
EXTT4=
EXTT5=
EXTT6=
EXTT7=
EXTT8=
EXTT9=
EXTT10=
EXTT11=
PLAYORDER=
